<svg xmlns="http://www.w3.org/2000/svg" viewBox="0 0 380 80" width="380" height="80">
  <defs>
    <linearGradient id="bg" x1="0%" y1="0%" x2="100%" y2="0%">
      <stop offset="0%" style="stop-color:#080C14"/>
      <stop offset="100%" style="stop-color:#0c0820"/>
    </linearGradient>
    <linearGradient id="glow" x1="0%" y1="0%" x2="100%" y2="100%">
      <stop offset="0%" style="stop-color:#00D8FF"/>
      <stop offset="100%" style="stop-color:#A86BFF"/>
    </linearGradient>
    <filter id="f1"><feGaussianBlur stdDeviation="1.5" result="blur"/><feMerge><feMergeNode in="blur"/><feMergeNode in="SourceGraphic"/></feMerge></filter>
  </defs>
  <rect width="380" height="80" fill="url(#bg)" rx="10"/>
  <rect width="380" height="80" fill="none" stroke="#00D8FF" stroke-width="1" stroke-opacity="0.18" rx="10"/>
  <path d="M10 4 L4 4 L4 10" fill="none" stroke="#00D8FF" stroke-width="1.2" opacity="0.35"/>
  <path d="M370 4 L376 4 L376 10" fill="none" stroke="#A86BFF" stroke-width="1.2" opacity="0.35"/>
  <path d="M10 76 L4 76 L4 70" fill="none" stroke="#A86BFF" stroke-width="1.2" opacity="0.35"/>
  <path d="M370 76 L376 76 L376 70" fill="none" stroke="#00D8FF" stroke-width="1.2" opacity="0.35"/>
  <!-- Icon D -->
  <circle cx="40" cy="40" r="22" fill="none" stroke="url(#glow)" stroke-width="1.5" opacity="0.2"/>
  <circle cx="40" cy="40" r="14" fill="none" stroke="url(#glow)" stroke-width="1" opacity="0.4"/>
  <path d="M28 28 Q40 20 52 28 Q58 34 52 52 Q40 60 28 52 Q22 40 28 28Z" fill="none" stroke="url(#glow)" stroke-width="1.5" opacity="0.35"/>
  <text x="40" y="45" font-family="'Poppins','Arial',sans-serif" font-size="16" font-weight="900" fill="#080C14" text-anchor="middle">
    <tspan fill="url(#glow)">D</tspan>
  </text>
  <!-- Name -->
  <text x="76" y="38" font-family="'Poppins','Arial',sans-serif" font-size="20" font-weight="900" fill="#FDFDFD" letter-spacing="0">Da<tspan fill="url(#glow)">Vinci</tspan></text>
  <tspan></tspan>
  <text x="76" y="56" font-family="'Courier New',monospace" font-size="10" fill="#00D8FF" letter-spacing="2" opacity="0.7">AI</text>
  <text x="100" y="56" font-family="'Courier New',monospace" font-size="8" fill="rgba(253,253,253,0.4)" letter-spacing="2">  · Where Art Thinks</text>
  <!-- Token badge -->
  <rect x="290" y="28" width="74" height="22" rx="4" fill="rgba(0,216,255,0.06)" stroke="#A86BFF" stroke-width="1" stroke-opacity="0.35"/>
  <text x="327" y="43" font-family="'Courier New',monospace" font-size="10" font-weight="700" fill="url(#glow)" text-anchor="middle" letter-spacing="1">DAVINCI</text>
</svg>
