<svg xmlns="http://www.w3.org/2000/svg" viewBox="0 0 380 80" width="380" height="80">
  <defs>
    <linearGradient id="bg" x1="0%" y1="0%" x2="100%" y2="0%">
      <stop offset="0%" style="stop-color:#080f1a"/>
      <stop offset="100%" style="stop-color:#0a1520"/>
    </linearGradient>
    <linearGradient id="glow" x1="0%" y1="0%" x2="100%" y2="100%">
      <stop offset="0%" style="stop-color:#31F2C3"/>
      <stop offset="100%" style="stop-color:#00e5b3"/>
    </linearGradient>
    <filter id="f1"><feGaussianBlur stdDeviation="1.5" result="blur"/><feMerge><feMergeNode in="blur"/><feMergeNode in="SourceGraphic"/></feMerge></filter>
  </defs>
  <rect width="380" height="80" fill="url(#bg)" rx="10"/>
  <rect width="380" height="80" fill="none" stroke="#31F2C3" stroke-width="1" stroke-opacity="0.2" rx="10"/>
  <path d="M10 4 L4 4 L4 10" fill="none" stroke="#31F2C3" stroke-width="1.2" opacity="0.4"/>
  <path d="M370 4 L376 4 L376 10" fill="none" stroke="#31F2C3" stroke-width="1.2" opacity="0.4"/>
  <path d="M10 76 L4 76 L4 70" fill="none" stroke="#31F2C3" stroke-width="1.2" opacity="0.4"/>
  <path d="M370 76 L376 76 L376 70" fill="none" stroke="#31F2C3" stroke-width="1.2" opacity="0.4"/>
  <!-- Chain icon -->
  <circle cx="28" cy="40" r="12" fill="none" stroke="#31F2C3" stroke-width="1.5" opacity="0.3"/>
  <circle cx="28" cy="40" r="7" fill="none" stroke="#31F2C3" stroke-width="1.2" opacity="0.6"/>
  <circle cx="52" cy="40" r="12" fill="none" stroke="#31F2C3" stroke-width="1.5" opacity="0.3"/>
  <circle cx="52" cy="40" r="7" fill="none" stroke="#31F2C3" stroke-width="1.2" opacity="0.6"/>
  <rect x="33" y="36" width="14" height="8" rx="4" fill="none" stroke="#31F2C3" stroke-width="1.2" opacity="0.7"/>
  <circle cx="28" cy="40" r="2" fill="#31F2C3" opacity="0.9"/>
  <circle cx="52" cy="40" r="2" fill="#31F2C3" opacity="0.9"/>
  <!-- Name -->
  <text x="76" y="44" font-family="'Courier New',monospace" font-size="22" font-weight="900" fill="url(#glow)" letter-spacing="2" filter="url(#f1)">AILINK</text>
  <text x="76" y="60" font-family="'Courier New',monospace" font-size="8" fill="#31F2C3" letter-spacing="3" opacity="0.6">INTELLIGENCE, CONNECTED</text>
  <!-- Token badge -->
  <rect x="300" y="28" width="62" height="22" rx="4" fill="rgba(49,242,195,0.06)" stroke="#31F2C3" stroke-width="1" stroke-opacity="0.35"/>
  <text x="331" y="43" font-family="'Courier New',monospace" font-size="10" font-weight="700" fill="#31F2C3" text-anchor="middle" letter-spacing="1">ALINK</text>
</svg>
