<svg xmlns="http://www.w3.org/2000/svg" viewBox="0 0 64 64" width="64" height="64">
  <defs>
    <linearGradient id="bg" x1="0%" y1="0%" x2="100%" y2="100%">
      <stop offset="0%" style="stop-color:#080f1a"/>
      <stop offset="100%" style="stop-color:#0a1520"/>
    </linearGradient>
    <linearGradient id="glow" x1="0%" y1="0%" x2="100%" y2="100%">
      <stop offset="0%" style="stop-color:#31F2C3"/>
      <stop offset="100%" style="stop-color:#00e5b3"/>
    </linearGradient>
    <filter id="f1"><feGaussianBlur stdDeviation="1" result="blur"/><feMerge><feMergeNode in="blur"/><feMergeNode in="SourceGraphic"/></feMerge></filter>
  </defs>
  <rect width="64" height="64" fill="url(#bg)" rx="12"/>
  <rect width="64" height="64" fill="none" stroke="#31F2C3" stroke-width="1" stroke-opacity="0.25" rx="12"/>
  <path d="M6 3 L3 3 L3 6" fill="none" stroke="#31F2C3" stroke-width="1" opacity="0.5"/>
  <path d="M58 3 L61 3 L61 6" fill="none" stroke="#31F2C3" stroke-width="1" opacity="0.5"/>
  <path d="M6 61 L3 61 L3 58" fill="none" stroke="#31F2C3" stroke-width="1" opacity="0.5"/>
  <path d="M58 61 L61 61 L61 58" fill="none" stroke="#31F2C3" stroke-width="1" opacity="0.5"/>
  <!-- Chain links -->
  <circle cx="24" cy="32" r="9" fill="none" stroke="#31F2C3" stroke-width="1.5" opacity="0.3"/>
  <circle cx="24" cy="32" r="5" fill="none" stroke="#31F2C3" stroke-width="1.2" opacity="0.7"/>
  <circle cx="40" cy="32" r="9" fill="none" stroke="#31F2C3" stroke-width="1.5" opacity="0.3"/>
  <circle cx="40" cy="32" r="5" fill="none" stroke="#31F2C3" stroke-width="1.2" opacity="0.7"/>
  <rect x="27" y="29" width="10" height="6" rx="3" fill="none" stroke="#31F2C3" stroke-width="1.2" opacity="0.8"/>
  <circle cx="24" cy="32" r="2" fill="#31F2C3" opacity="0.9" filter="url(#f1)"/>
  <circle cx="40" cy="32" r="2" fill="#31F2C3" opacity="0.9" filter="url(#f1)"/>
</svg>
